<svg width="1245" height="779" viewBox="0 0 1245 779" fill="none" xmlns="http://www.w3.org/2000/svg">
<path d="M233.438 9.63444e-07H311.25M233.438 9.63444e-07V77.8M233.438 9.63444e-07H155.625M311.25 9.63444e-07V77.8M311.25 9.63444e-07H389.063M311.25 77.8H233.438M311.25 77.8H389.063M311.25 77.8V155.6M233.438 77.8V155.6M233.438 77.8H155.625M389.063 9.63444e-07V77.8M389.063 9.63444e-07H466.875M389.063 77.8H466.875M389.063 77.8V155.6M466.875 9.63444e-07V77.8M466.875 9.63444e-07H544.687M466.875 77.8H544.687M466.875 77.8V155.6M544.687 9.63444e-07V77.8M544.687 9.63444e-07H622.5M544.687 77.8H622.5M544.687 77.8V155.6M622.5 9.63444e-07V77.8M622.5 9.63444e-07H700.312M622.5 77.8H700.312M622.5 77.8V155.6M700.312 9.63444e-07V77.8M700.312 9.63444e-07H778.125M700.312 77.8H778.125M700.312 77.8V155.6M778.125 9.63444e-07V77.8M778.125 9.63444e-07H855.937M778.125 77.8H855.937M778.125 77.8V155.6M855.937 9.63444e-07V77.8M855.937 9.63444e-07H933.75M855.937 77.8H933.75M855.937 77.8V155.6M933.75 9.63444e-07V77.8M933.75 9.63444e-07H1011.56M933.75 77.8H1011.56M933.75 77.8V155.6M1011.56 9.63444e-07V77.8M1011.56 9.63444e-07H1089.37M1011.56 77.8V155.6M1011.56 77.8H1089.37M311.25 155.6H233.438M311.25 155.6H389.063M311.25 155.6V233.4M233.438 155.6V233.4M233.438 155.6H155.625M389.063 155.6H466.875M389.063 155.6V233.4M466.875 155.6H544.687M466.875 155.6V233.4M544.687 155.6H622.5M544.687 155.6V233.4M622.5 155.6H700.312M622.5 155.6V233.4M700.312 155.6H778.125M700.312 155.6V233.4M778.125 155.6H855.937M778.125 155.6V233.4M855.937 155.6H933.75M855.937 155.6V233.4M933.75 155.6H1011.56M933.75 155.6V233.4M1011.56 155.6V233.4M1011.56 155.6H1089.37M311.25 233.4H233.438M311.25 233.4H389.063M311.25 233.4V311.2M233.438 233.4V311.2M233.438 233.4H155.625M389.063 233.4H466.875M389.063 233.4V311.2M466.875 233.4H544.687M466.875 233.4V311.2M544.687 233.4H622.5M544.687 233.4V311.2M622.5 233.4H700.312M622.5 233.4V311.2M700.312 233.4H778.125M700.312 233.4V311.2M778.125 233.4H855.937M778.125 233.4V311.2M855.937 233.4H933.75M855.937 233.4V311.2M933.75 233.4H1011.56M933.75 233.4V311.2M1011.56 233.4V311.2M1011.56 233.4H1089.37M311.25 311.2H233.438M311.25 311.2H389.063M311.25 311.2V389M233.438 311.2V389M233.438 311.2H155.625M389.063 311.2H466.875M389.063 311.2V389M466.875 311.2H544.687M466.875 311.2V389M544.687 311.2H622.5M544.687 311.2V389M622.5 311.2H700.312M622.5 311.2V389M700.312 311.2H778.125M700.312 311.2V389M778.125 311.2H855.937M778.125 311.2V389M855.937 311.2H933.75M855.937 311.2V389M933.75 311.2H1011.56M933.75 311.2V389M1011.56 311.2V389M1011.56 311.2H1089.37M311.25 389H233.438M311.25 389H389.063M311.25 389V466.8M233.438 389V466.8M233.438 389H155.625M389.063 389H466.875M389.063 389V466.8M466.875 389H544.687M466.875 389V466.8M544.687 389H622.5M544.687 389V466.8M622.5 389H700.312M622.5 389V466.8M700.312 389H778.125M700.312 389V466.8M778.125 389H855.937M778.125 389V466.8M855.937 389H933.75M855.937 389V466.8M933.75 389H1011.56M933.75 389V466.8M1011.56 389V466.8M1011.56 389H1089.37M311.25 466.8H233.438M311.25 466.8H389.063M311.25 466.8V544.6M233.438 466.8V544.6M233.438 466.8H155.625M389.063 466.8H466.875M389.063 466.8V544.6M466.875 466.8H544.687M466.875 466.8V544.6M544.687 466.8H622.5M544.687 466.8V544.6M622.5 466.8H700.312M622.5 466.8V544.6M700.312 466.8H778.125M700.312 466.8V544.6M778.125 466.8H855.937M778.125 466.8V544.6M855.937 466.8H933.75M855.937 466.8V544.6M933.75 466.8H1011.56M933.75 466.8V544.6M1011.56 466.8V544.6M1011.56 466.8H1089.37M311.25 544.6H233.438M311.25 544.6H389.063M311.25 544.6V622.4M233.438 544.6V622.4M233.438 544.6H155.625M389.063 544.6H466.875M389.063 544.6V622.4M466.875 544.6H544.687M466.875 544.6V622.4M544.687 544.6H622.5M544.687 544.6V622.4M622.5 544.6H700.312M622.5 544.6V622.4M700.312 544.6H778.125M700.312 544.6V622.4M778.125 544.6H855.937M778.125 544.6V622.4M855.937 544.6H933.75M855.937 544.6V622.4M933.75 544.6H1011.56M933.75 544.6V622.4M1011.56 544.6V622.4M1011.56 544.6H1089.37M311.25 622.4H233.438M311.25 622.4H389.063M311.25 622.4V700.2M233.438 622.4V700.2M233.438 622.4H155.625M389.063 622.4H466.875M389.063 622.4V700.2M466.875 622.4H544.687M466.875 622.4V700.2M544.687 622.4H622.5M544.687 622.4V700.2M622.5 622.4H700.312M622.5 622.4V700.2M700.312 622.4H778.125M700.312 622.4V700.2M778.125 622.4H855.937M778.125 622.4V700.2M855.937 622.4H933.75M855.937 622.4V700.2M933.75 622.4H1011.56M933.75 622.4V700.2M1011.56 622.4V700.2M1011.56 622.4H1089.37M311.25 700.2H233.438M311.25 700.2H389.063M311.25 700.2V778M233.438 700.2V778M233.438 700.2H155.625M389.063 700.2H466.875M389.063 700.2V778M466.875 700.2H544.687M466.875 700.2V778M544.687 700.2H622.5M544.687 700.2V778M622.5 700.2H700.312M622.5 700.2V778M700.312 700.2H778.125M700.312 700.2V778M778.125 700.2H855.937M778.125 700.2V778M855.937 700.2H933.75M855.937 700.2V778M933.75 700.2H1011.56M933.75 700.2V778M1011.56 700.2V778M1011.56 700.2H1089.37M311.25 778H233.438M311.25 778H389.063M233.438 778H155.625M389.063 778H466.875M466.875 778H544.687M544.687 778H622.5M622.5 778H700.312M700.312 778H778.125M778.125 778H855.937M855.937 778H933.75M933.75 778H1011.56M1011.56 778H1089.37M1089.37 9.63444e-07V77.8M1089.37 9.63444e-07H1167.19M1089.37 77.8H1167.19M1089.37 77.8V155.6M1167.19 9.63444e-07V77.8M1167.19 9.63444e-07H1245M1167.19 77.8V155.6M1167.19 77.8H1245M1089.37 155.6H1167.19M1089.37 155.6V233.4M1167.19 155.6V233.4M1167.19 155.6H1245M1089.37 233.4H1167.19M1089.37 233.4V311.2M1167.19 233.4V311.2M1167.19 233.4H1245M1089.37 311.2H1167.19M1089.37 311.2V389M1167.19 311.2V389M1167.19 311.2H1245M1089.37 389H1167.19M1089.37 389V466.8M1167.19 389V466.8M1167.19 389H1245M1089.37 466.8H1167.19M1089.37 466.8V544.6M1167.19 466.8V544.6M1167.19 466.8H1245M1089.37 544.6H1167.19M1089.37 544.6V622.4M1167.19 544.6V622.4M1167.19 544.6H1245M1089.37 622.4H1167.19M1089.37 622.4V700.2M1167.19 622.4V700.2M1167.19 622.4H1245M1089.37 700.2H1167.19M1089.37 700.2V778M1167.19 700.2V778M1167.19 700.2H1245M1089.37 778H1167.19M1167.19 778H1245M77.8125 9.63444e-07H155.625M77.8125 9.63444e-07V77.8M77.8125 9.63444e-07L0 0M155.625 9.63444e-07V77.8M155.625 77.8H77.8125M155.625 77.8V155.6M77.8125 77.8V155.6M77.8125 77.8H0M155.625 155.6H77.8125M155.625 155.6V233.4M77.8125 155.6V233.4M77.8125 155.6H0M155.625 233.4H77.8125M155.625 233.4V311.2M77.8125 233.4V311.2M77.8125 233.4H0M155.625 311.2H77.8125M155.625 311.2V389M77.8125 311.2V389M77.8125 311.2H0M155.625 389H77.8125M155.625 389V466.8M77.8125 389V466.8M77.8125 389H0M155.625 466.8H77.8125M155.625 466.8V544.6M77.8125 466.8V544.6M77.8125 466.8H0M155.625 544.6H77.8125M155.625 544.6V622.4M77.8125 544.6V622.4M77.8125 544.6H0M155.625 622.4H77.8125M155.625 622.4V700.2M77.8125 622.4V700.2M77.8125 622.4H0M155.625 700.2H77.8125M155.625 700.2V778M77.8125 700.2V778M77.8125 700.2H0M155.625 778H77.8125M77.8125 778H0" stroke="white" stroke-miterlimit="10" style="mix-blend-mode:luminosity"/>
</svg>
