<svg width="32" height="32" viewBox="0 0 32 32" fill="none" xmlns="http://www.w3.org/2000/svg">
<g clip-path="url(#clip0_2_131)">
<g clip-path="url(#clip1_2_131)">
<path d="M13.1894 18.6707L4.66675 26.0307M18.8107 18.6707L27.3334 26.0307" stroke="#FF4D4F" stroke-width="1.86667" stroke-miterlimit="10"/>
<path d="M4.66675 11.604V27.3333H27.3334V11.604L16.0001 21.0053L4.66675 11.604Z" stroke="#FF4D4F" stroke-width="1.86667" stroke-miterlimit="10" stroke-linejoin="round"/>
<path d="M6.31616 12.6826V4.66663H20.9322L25.6828 8.99596V13.0013" stroke="#FF4D4F" stroke-width="1.86667" stroke-miterlimit="10" stroke-linejoin="round"/>
<path d="M19.6068 9.01991C19.4095 8.81936 19.1744 8.6599 18.9151 8.55073C18.6558 8.44157 18.3775 8.38487 18.0961 8.38391C17.8148 8.38363 17.5363 8.43977 17.277 8.54902C17.0178 8.65826 16.7831 8.81838 16.5868 9.01991L15.9908 9.62125L15.3975 9.01991C15.1997 8.82311 14.9651 8.66728 14.707 8.56135C14.4489 8.45541 14.1724 8.40146 13.8935 8.40258C13.6144 8.40461 13.3385 8.46171 13.0815 8.57062C12.8246 8.67954 12.5916 8.83811 12.3961 9.03725C11.997 9.44251 11.7718 9.98758 11.7686 10.5564C11.7654 11.1252 11.9843 11.6728 12.3788 12.0826L12.9721 12.6839L15.9908 15.7466L19.0108 12.6839L19.6068 12.0839C20.0078 11.6747 20.2322 11.1245 20.232 10.5516C20.2317 9.97873 20.0081 9.42877 19.6068 9.01991Z" stroke="#FFADA5" stroke-width="1.86667" stroke-miterlimit="10"/>
</g>
</g>
<defs>
<clipPath id="clip0_2_131">
<rect width="32" height="32" fill="white"/>
</clipPath>
<clipPath id="clip1_2_131">
<rect width="32" height="32" fill="white"/>
</clipPath>
</defs>
</svg>
