<svg width="32" height="32" viewBox="0 0 32 32" fill="none" xmlns="http://www.w3.org/2000/svg">
<g clip-path="url(#clip0_2_159)">
<g clip-path="url(#clip1_2_159)">
<path d="M7.98667 24.56H6.66667C5.95942 24.56 5.28115 24.279 4.78105 23.7789C4.28095 23.2788 4 22.6005 4 21.8933V7.33329C4 6.62605 4.28095 5.94777 4.78105 5.44767C5.28115 4.94758 5.95942 4.66663 6.66667 4.66663H20.196C20.9032 4.66663 21.5815 4.94758 22.0816 5.44767C22.5817 5.94777 22.8627 6.62605 22.8627 7.33329V7.88663M10.6347 16.2973H17.1733M10.6347 20.4466H14.9653M10.6347 12.1466H24.496" stroke="#FF8531" stroke-width="1.86667" stroke-linecap="round" stroke-linejoin="round"/>
<path d="M20.8534 20.3386L17.5281 23.148L20.8521 25.872M24.6761 20.3386L28.0001 23.1466L24.6761 25.8706" stroke="#FFC671" stroke-width="1.86667" stroke-linecap="round" stroke-linejoin="round"/>
<path d="M27.1466 18.4186V10.9146C27.1466 10.2073 26.8656 9.52907 26.3655 9.02897C25.8654 8.52888 25.1871 8.24792 24.4799 8.24792H10.6506C9.94331 8.24792 9.26503 8.52888 8.76494 9.02897C8.26484 9.52907 7.98389 10.2073 7.98389 10.9146V25.3333C7.98389 26.0405 8.26484 26.7188 8.76494 27.2189C9.26503 27.719 9.94331 27.9999 10.6506 27.9999H19.3986" stroke="#FF8531" stroke-width="1.86667" stroke-linecap="round" stroke-linejoin="round"/>
</g>
</g>
<defs>
<clipPath id="clip0_2_159">
<rect width="32" height="32" fill="white"/>
</clipPath>
<clipPath id="clip1_2_159">
<rect width="32" height="32" fill="white"/>
</clipPath>
</defs>
</svg>
