<svg width="32" height="32" viewBox="0 0 32 32" fill="none" xmlns="http://www.w3.org/2000/svg">
<path d="M5.50391 15.7706V20.516C5.50391 20.837 5.56717 21.1549 5.69007 21.4516C5.81298 21.7482 5.99312 22.0176 6.22021 22.2446C6.4473 22.4716 6.71688 22.6516 7.01355 22.7743C7.31023 22.8971 7.62818 22.9601 7.94924 22.96H13.2919C13.2919 22.96 14.0986 26.86 10.6919 27.5493C10.6919 27.5493 17.1932 27.172 19.0119 23.116H24.5119C25.16 23.1156 25.7814 22.858 26.2397 22.3997C26.6979 21.9415 26.9556 21.32 26.9559 20.672V8.26663C26.9559 7.61844 26.6984 6.9968 26.2401 6.53846C25.7817 6.08012 25.1601 5.82263 24.5119 5.82263H18.0279" stroke="#C123CF" stroke-width="1.86667" stroke-linecap="round" stroke-linejoin="round"/>
<path d="M18.2521 10.9534H23.6454M13.6107 14.6467H23.6454M8.81738 18.3387H23.644" stroke="#C96DF4" stroke-width="1.86667" stroke-linecap="round" stroke-linejoin="round"/>
<path d="M9.57326 6.46131C10.0201 5.90095 10.6178 5.47997 11.2959 5.24798C11.7969 5.0921 12.3311 5.07737 12.8399 5.2054C13.3487 5.33343 13.8124 5.59927 14.1799 5.97369C14.5474 6.3481 14.8046 6.81661 14.9232 7.32769C15.0417 7.83878 15.0171 8.37266 14.8519 8.87064C13.9186 11.8266 9.58926 14.28 9.58926 14.28C9.58926 14.28 5.2426 11.8266 4.3306 8.87064C4.16545 8.37266 4.14079 7.83878 4.25935 7.32769C4.37791 6.81661 4.63509 6.3481 5.00262 5.97369C5.37015 5.59927 5.83379 5.33343 6.34259 5.2054C6.85138 5.07737 7.38563 5.0921 7.8866 5.24798C8.55326 5.48398 9.13726 5.90531 9.57326 6.46131Z" stroke="#C123CF" stroke-width="1.86667" stroke-linecap="round" stroke-linejoin="round"/>
<path d="M11.3333 7.33325C11.9999 7.33325 12.4653 8.35992 12.4653 8.35992" stroke="#C123CF" stroke-width="1.33333" stroke-linecap="round" stroke-linejoin="round"/>
</svg>
