<svg width="32" height="32" viewBox="0 0 32 32" fill="none" xmlns="http://www.w3.org/2000/svg">
<g clip-path="url(#clip0_2_102)">
<g clip-path="url(#clip1_2_102)">
<path d="M11.9839 24.464C12.4587 24.129 13.0255 23.9492 13.6066 23.9493H20.6066C21.0039 23.9493 21.3866 23.7933 21.6679 23.5147C21.9506 23.236 22.1079 22.86 22.1079 22.4653V10.596C22.1079 10.2027 21.9506 9.82533 21.6679 9.54667C21.3845 9.26782 21.0028 9.11168 20.6053 9.112H4.83592C4.43725 9.112 4.05592 9.26933 3.77325 9.54667C3.49192 9.82533 3.33325 10.2027 3.33325 10.596V22.4653C3.33325 22.86 3.49192 23.236 3.77325 23.5147C4.05592 23.7933 4.43725 23.9493 4.83592 23.9493H5.58792C6.35192 23.9493 6.97059 24.568 6.97059 25.332C6.97059 26.4533 8.23459 27.108 9.15059 26.4627L11.9839 24.464Z" stroke="#00C2A7" stroke-width="1.96933" stroke-linecap="round" stroke-linejoin="round"/>
<path d="M17.6946 12.54V19.9293H15.8279V12.54H17.6946ZM9.30525 19.9293H7.29858L9.90658 12.54H12.3919L14.9973 19.9293H12.9906L11.1759 14.4013H11.1159L9.30525 19.9293ZM9.03858 17.0213H13.2319V18.3786H9.03725L9.03858 17.0213Z" fill="#51DFCB"/>
<path d="M9.29736 8.85999V5.58932C9.29707 5.379 9.33906 5.17076 9.42083 4.97699C9.5026 4.78321 9.62248 4.60785 9.77336 4.46132C9.9247 4.31271 10.1039 4.19545 10.3007 4.11629C10.4975 4.03712 10.7079 3.99759 10.92 3.99999H27C27.2156 3.99211 27.4306 4.02719 27.6325 4.10318C27.8344 4.17918 28.0192 4.29458 28.176 4.44265C28.3308 4.5904 28.4542 4.76788 28.5387 4.96446C28.6233 5.16104 28.6673 5.37267 28.668 5.58665V18.9413C28.6702 19.1517 28.6299 19.3603 28.5498 19.5548C28.4696 19.7492 28.3511 19.9256 28.2014 20.0733C28.0514 20.2228 27.8733 20.3412 27.6775 20.4217C27.4816 20.5023 27.2718 20.5434 27.06 20.5427H27.02C26.2107 20.5427 25.5547 21.1987 25.5547 22.0067C25.5547 23.24 24.124 23.9213 23.168 23.144L22.1254 22.2973" stroke="#00C2A7" stroke-width="1.96933" stroke-linecap="round" stroke-linejoin="round"/>
</g>
</g>
<defs>
<clipPath id="clip0_2_102">
<rect width="32" height="32" fill="white"/>
</clipPath>
<clipPath id="clip1_2_102">
<rect width="32" height="32" fill="white"/>
</clipPath>
</defs>
</svg>
