<svg width="100" height="101" viewBox="0 0 100 101" fill="none" xmlns="http://www.w3.org/2000/svg">
<g clip-path="url(#clip0_2_463)">
<g clip-path="url(#clip1_2_463)">
<g clip-path="url(#clip2_2_463)">
<path d="M83.15 0.609985H16.63C7.4455 0.609985 0 8.05549 0 17.24V83.76C0 92.9445 7.4455 100.39 16.63 100.39H83.15C92.3345 100.39 99.78 92.9445 99.78 83.76V17.24C99.78 8.05549 92.3345 0.609985 83.15 0.609985Z" fill="#FFF2DB"/>
<path d="M37.3593 25.9292H24.7163C24.3776 25.9288 24.0439 26.0111 23.7443 26.1691C23.4447 26.3271 23.1882 26.5558 22.9972 26.8355L14.6697 39.0586C14.4568 39.3711 14.3332 39.7357 14.3122 40.1133C14.2911 40.4908 14.3735 40.8669 14.5503 41.2011C14.7271 41.5353 14.9918 41.815 15.3158 42.01C15.6397 42.205 16.0107 42.3079 16.3888 42.3077H83.8547C84.2134 42.3074 84.566 42.2144 84.8781 42.0375C85.1902 41.8607 85.4512 41.606 85.6358 41.2984C85.8204 40.9908 85.9222 40.6407 85.9313 40.2821C85.9405 39.9234 85.8567 39.5686 85.6881 39.2519L79.1692 27.0289C78.9921 26.6963 78.728 26.4181 78.405 26.2241C78.0821 26.03 77.7125 25.9274 77.3357 25.9271H64.8424" stroke="#F39E15" stroke-width="3.74175" stroke-linecap="round"/>
<path d="M46.1129 22.5844H54.8187M62.745 31.2611H37.6212V17.8407C37.6212 16.7381 38.0592 15.6806 38.8389 14.9009C39.6186 14.1212 40.6761 13.6832 41.7787 13.6832H58.5875C59.6901 13.6832 60.7476 14.1212 61.5273 14.9009C62.307 15.6806 62.745 16.7381 62.745 17.8407V31.2611Z" stroke="#F39E15" stroke-width="3.74175" stroke-linecap="round"/>
<path d="M44.8096 61.5465V76.3264H41.0927V61.5465H44.8096ZM28.1089 76.3264H24.1177L29.3042 61.5465H34.2516L39.4381 76.3264H35.4427L31.834 65.2696H31.7134L28.1089 76.3264ZM27.5767 70.5101H35.925V73.2228H27.5767V70.5101Z" fill="#DF590E"/>
<path d="M18.6755 51.0529V83.1571C18.6755 84.2598 19.1136 85.3173 19.8932 86.0969C20.6729 86.8766 21.7304 87.3146 22.833 87.3146H76.4523C77.555 87.3146 78.6124 86.8766 79.3921 86.0969C80.1718 85.3173 80.6098 84.2598 80.6098 83.1571V51.0508M15.2456 42.5903V45.274C15.2453 45.9883 15.3858 46.6957 15.659 47.3557C15.9321 48.0157 16.3326 48.6154 16.8376 49.1206C17.3426 49.6258 17.9422 50.0265 18.6021 50.2999C19.262 50.5734 19.9693 50.7141 20.6836 50.7141C21.3981 50.7144 22.1056 50.5738 22.7658 50.3005C23.4259 50.0272 24.0257 49.6265 24.5309 49.1213C25.0362 48.6161 25.4369 48.0163 25.7102 47.3562C25.9835 46.696 26.124 45.9885 26.1237 45.274V42.5903M74.2634 42.5903V45.274C74.2631 45.9883 74.4036 46.6957 74.6767 47.3557C74.9499 48.0157 75.3504 48.6154 75.8554 49.1206C76.3604 49.6258 76.96 50.0265 77.6199 50.2999C78.2798 50.5734 78.9871 50.7141 79.7014 50.7141C80.4159 50.7144 81.1234 50.5738 81.7836 50.3005C82.4437 50.0272 83.0435 49.6265 83.5487 49.1213C84.054 48.6161 84.4547 48.0163 84.7279 47.3562C85.0012 46.696 85.1418 45.9885 85.1415 45.274V42.5903" stroke="#F39E15" stroke-width="3.74175" stroke-linecap="round"/>
<path d="M26.1216 42.6714V46.4173C26.1216 48.5454 26.967 50.5863 28.4717 52.0911C29.9765 53.5959 32.0175 54.4413 34.1456 54.4413C36.2736 54.4413 38.3146 53.5959 39.8194 52.0911C41.3242 50.5863 42.1695 48.5454 42.1695 46.4173M42.1695 46.4173V42.6714M42.1695 46.4173C42.1695 48.5454 43.0149 50.5863 44.5197 52.0911C46.0245 53.5959 48.0654 54.4413 50.1935 54.4413C52.3216 54.4413 54.3625 53.5959 55.8673 52.0911C57.3721 50.5863 58.2175 48.5454 58.2175 46.4173V42.6714" stroke="#F39E15" stroke-width="3.74175" stroke-linecap="round"/>
<path d="M58.2154 42.6714V46.4173C58.2154 48.5454 59.0608 50.5863 60.5655 52.0911C62.0703 53.5959 64.1113 54.4413 66.2394 54.4413C68.3674 54.4413 70.4084 53.5959 71.9132 52.0911C73.418 50.5863 74.2633 48.5454 74.2633 46.4173V42.6714M52.2618 86.982V70.5121C52.2624 67.9161 53.2939 65.4266 55.1295 63.5909C56.9652 61.7553 59.4547 60.7238 62.0507 60.7233C67.4554 60.7233 71.8374 65.1053 71.8374 70.5121V86.9799" stroke="#F39E15" stroke-width="3.74175" stroke-linecap="round"/>
</g>
</g>
</g>
<defs>
<clipPath id="clip0_2_463">
<rect width="99.78" height="99.78" fill="white" transform="translate(0 0.609985)"/>
</clipPath>
<clipPath id="clip1_2_463">
<rect width="99.78" height="99.78" fill="white" transform="translate(0 0.609985)"/>
</clipPath>
<clipPath id="clip2_2_463">
<rect width="99.78" height="99.78" fill="white" transform="translate(0 0.609985)"/>
</clipPath>
</defs>
</svg>
