<svg width="125" height="125" viewBox="0 0 125 125" fill="none" xmlns="http://www.w3.org/2000/svg">
<g clip-path="url(#clip0_2_477)">
<g clip-path="url(#clip1_2_477)">
<g clip-path="url(#clip2_2_477)">
<path d="M103.733 0H20.7467C9.2886 0 0 9.2886 0 20.7467V103.733C0 115.191 9.2886 124.48 20.7467 124.48H103.733C115.191 124.48 124.48 115.191 124.48 103.733V20.7467C124.48 9.2886 115.191 0 103.733 0Z" fill="#FAEEFE"/>
<path d="M60.487 62.4994C56.7069 62.3623 53.1083 60.8435 50.373 58.2308C47.7178 55.698 46.1651 52.2227 46.0499 48.555C44.927 48.5587 43.8342 48.1923 42.9405 47.5125C42.07 46.8534 41.458 45.9101 41.2108 44.8466L40.6765 42.4607C40.5419 41.8341 40.5428 41.186 40.6791 40.5598C40.8171 39.9288 41.0866 39.3341 41.4701 38.8145C41.8539 38.288 42.3466 37.8446 42.9198 37.5048C43.4903 37.1677 44.1283 36.9421 44.7947 36.8435H45.5961V30.8011C45.5961 26.7581 47.2869 22.881 50.2952 20.0232C53.3667 17.1417 57.4244 15.5448 61.6359 15.56H62.6006C66.8536 15.56 70.9329 17.1679 73.9412 20.0232C76.9495 22.881 78.6403 26.7581 78.6403 30.8011V36.8435H79.4443C80.1108 36.9395 80.7487 37.1599 81.3218 37.4971C81.8976 37.8342 82.3903 38.2802 82.7767 38.8067C83.1631 39.3331 83.4302 39.927 83.5651 40.5572C83.6999 41.1848 83.6973 41.8305 83.5599 42.4581L83.0257 44.844C82.7847 45.9062 82.1779 46.8499 81.3115 47.5099C80.4218 48.1902 79.3324 48.5576 78.2124 48.555C78.0995 50.7666 77.4868 52.9238 76.4204 54.8646C75.3343 56.8387 73.8296 58.5514 72.0118 59.8827V69.8904M51.9861 59.7038V64.6052C51.9861 64.6052 28.4879 66.0782 27.3909 80.0225C26.6855 89.0032 28.4516 101.301 29.8001 108.92" stroke="#DA71FB" stroke-width="4.668" stroke-miterlimit="10" stroke-linecap="round" stroke-linejoin="round"/>
<path d="M72.5173 64.6077C72.5173 64.6077 96.0181 66.0807 97.1125 80.025C97.7738 88.4404 95.8677 101.111 94.5633 108.775" stroke="#DA71FB" stroke-width="4.668" stroke-miterlimit="10" stroke-linecap="round" stroke-linejoin="round"/>
<path d="M45.2278 32.6085C47.5328 32.527 49.7864 31.9052 51.8071 30.7932C53.7907 29.7048 55.4779 28.1477 56.7214 26.2574C57.5792 27.9975 58.8497 29.5013 60.4221 30.6376C62.0277 31.8 63.883 32.5709 65.8396 32.8886C72.3618 33.7262 79.2056 34.0037 79.2056 34.0037" stroke="#DA71FB" stroke-width="4.668" stroke-miterlimit="10" stroke-linejoin="round"/>
<path d="M56.532 47.9871C58.179 49.0852 60.1152 49.6692 62.0947 49.6649C64.0734 49.669 66.0086 49.0849 67.6548 47.9871" stroke="#DA71FB" stroke-width="4.668" stroke-miterlimit="10" stroke-linecap="round" stroke-linejoin="round"/>
<path d="M75.8083 83.6401C77.2684 83.6401 78.6688 84.1899 79.7035 85.1676C80.7408 86.1453 81.3217 87.4757 81.3295 88.8631C81.3295 90.2531 80.7486 91.5861 79.7139 92.5716C78.6558 93.5631 77.2584 94.1124 75.8083 94.1068M75.3856 77.9685L56.1353 84.1095H47.8314C46.1354 84.1095 44.5094 84.7475 43.3113 85.8885C42.7232 86.4393 42.2536 87.1042 41.9312 87.8426C41.6088 88.581 41.4404 89.3774 41.4363 90.1831C41.4363 90.9819 41.5971 91.7754 41.9186 92.5145C42.2376 93.2536 42.707 93.9253 43.3035 94.4932C43.8974 95.0586 44.6001 95.5072 45.3781 95.8158C46.1561 96.1218 46.9886 96.28 47.8314 96.28H49.6727L54.4548 106.308H61.1249L55.4662 95.6447L75.383 102.092L75.3856 77.9685Z" stroke="#BE3DE7" stroke-width="4.668" stroke-miterlimit="10" stroke-linejoin="round"/>
<path d="M90.6241 50.3885L97.0322 46.8927M91.1764 58.9335L104.281 63.3007M34.5847 50.3885L28.1792 46.8927M34.0323 58.9335L20.9282 63.3033" stroke="#DA71FB" stroke-width="4.668" stroke-linecap="round"/>
</g>
</g>
</g>
<defs>
<clipPath id="clip0_2_477">
<rect width="124.48" height="124.48" fill="white"/>
</clipPath>
<clipPath id="clip1_2_477">
<rect width="124.48" height="124.48" fill="white"/>
</clipPath>
<clipPath id="clip2_2_477">
<rect width="124.48" height="124.48" fill="white"/>
</clipPath>
</defs>
</svg>
