<svg width="116" height="117" viewBox="0 0 116 117" fill="none" xmlns="http://www.w3.org/2000/svg">
<g clip-path="url(#clip0_2_503)">
<g clip-path="url(#clip1_2_503)">
<g clip-path="url(#clip2_2_503)">
<path d="M96.2917 0.48999H19.2583C8.62225 0.48999 0 9.11224 0 19.7483V96.7817C0 107.418 8.62225 116.04 19.2583 116.04H96.2917C106.928 116.04 115.55 107.418 115.55 96.7817V19.7483C115.55 9.11224 106.928 0.48999 96.2917 0.48999Z" fill="#F2EFFE"/>
<path d="M37.5128 34.4208L27.5707 30.3428C25.5606 29.5171 25.5871 26.6597 27.614 25.8701L54.9103 15.2708C55.4674 15.054 56.0853 15.0523 56.6436 15.2659L84.7463 26.0482C86.7636 26.8209 86.8166 29.6567 84.8305 30.5065L75.6973 34.4208" stroke="#9E7EFF" stroke-width="4.33312" stroke-miterlimit="10" stroke-linecap="round" stroke-linejoin="round"/>
<path d="M83.5283 32.3673V45.9348" stroke="#9E7EFF" stroke-width="4.33312" stroke-linecap="round"/>
<path d="M82.6905 58.6742C81.3255 55.5134 82.6183 49.5987 83.1864 46.6787C84.7896 45.8241 85.5287 46.2646 86.0992 47.0301C88.09 49.707 87.9817 55.7132 91.0823 58.0266C87.8782 59.7021 84.053 61.8398 82.6881 58.6766L82.6905 58.6742Z" stroke="#9E7EFF" stroke-width="4.33312" stroke-linecap="round" stroke-linejoin="round"/>
<path d="M39.0005 38.7948V30.285C39.0005 30.285 51.4775 24.8927 74.0555 30.285V37.9402C74.0555 37.9402 54.0918 33.1858 39.0005 38.7948Z" stroke="#9E7EFF" stroke-width="4.33312" stroke-miterlimit="10" stroke-linejoin="round"/>
<path d="M40.1994 38.3013L40.1753 41.9941C40.1753 41.9941 32.6862 43.5829 41.6029 52.8245C41.6029 52.8245 45.3438 65.9828 56.5762 66.6135C56.5762 66.6135 69.6815 68.3203 72.4812 51.7027C72.4812 51.7027 79.4262 43.0509 73.3671 41.4477V37.5479" stroke="#9E7EFF" stroke-width="4.33312" stroke-miterlimit="10" stroke-linejoin="round"/>
<path d="M52.5439 55.2896C53.7916 56.0845 55.2412 56.5048 56.7206 56.5004C58.2 56.5049 59.6496 56.0847 60.8973 55.2896" stroke="#9E7EFF" stroke-width="4.33312" stroke-miterlimit="10" stroke-linecap="round" stroke-linejoin="round"/>
<path d="M62.1273 76.2884L68.3261 71.2476M46.5979 71.2476L52.5222 76.3775" stroke="#714EFF" stroke-width="4.33312" stroke-miterlimit="10" stroke-linecap="round" stroke-linejoin="round"/>
<path d="M51.0249 90.672L54.9632 82.2007L52.4211 77.4921L57.5029 73.9871L62.5992 77.4921L60.0426 82.2007L64.0748 90.6744L57.4716 101.596L51.0249 90.672Z" stroke="#714EFF" stroke-width="4.33312" stroke-miterlimit="10" stroke-linejoin="round"/>
<path d="M46.7737 61.9698C46.7737 61.9698 48.3577 68.8234 45.9866 71.4979C45.9866 71.4979 16.9185 72.4151 15.6475 100.686M68.7764 61.9698C68.7764 61.9698 67.1924 68.8234 69.5636 71.4979C69.5636 71.4979 98.6316 72.4151 99.9027 100.686" stroke="#9E7EFF" stroke-width="4.33312" stroke-miterlimit="10" stroke-linecap="round" stroke-linejoin="round"/>
</g>
</g>
</g>
<defs>
<clipPath id="clip0_2_503">
<rect width="115.55" height="115.55" fill="white" transform="translate(0 0.48999)"/>
</clipPath>
<clipPath id="clip1_2_503">
<rect width="115.55" height="115.55" fill="white" transform="translate(0 0.48999)"/>
</clipPath>
<clipPath id="clip2_2_503">
<rect width="115.55" height="115.55" fill="white" transform="translate(0 0.48999)"/>
</clipPath>
</defs>
</svg>
