<svg width="107" height="108" viewBox="0 0 107 108" fill="none" xmlns="http://www.w3.org/2000/svg">
<g clip-path="url(#clip0_2_491)">
<g clip-path="url(#clip1_2_491)">
<g clip-path="url(#clip2_2_491)">
<path d="M89.0667 0.550049H17.8133C7.9753 0.550049 0 8.52535 0 18.3634V89.6167C0 99.4548 7.9753 107.43 17.8133 107.43H89.0667C98.9047 107.43 106.88 99.4548 106.88 89.6167V18.3634C106.88 8.52535 98.9047 0.550049 89.0667 0.550049Z" fill="#FDF1EC"/>
<path d="M49.8573 86.8467H32.6563C31.5849 86.8491 30.5235 86.6403 29.5328 86.2323C28.5421 85.8242 27.6415 85.2249 26.8826 84.4686C26.1253 83.713 25.525 82.815 25.1161 81.8264C24.7072 80.8378 24.4978 79.7781 24.5 78.7083V66.2055H16.0743L25.6646 53.3243V44.8117C25.6681 40.7528 26.4717 36.7344 28.0294 32.9863C29.5871 29.2382 31.8684 25.8339 34.7427 22.9681C40.5569 17.1708 48.4314 13.9137 56.642 13.91H57.6952C65.9106 13.9136 73.7898 17.1722 79.6078 22.9726C82.4844 25.8403 84.7675 29.247 86.3263 32.9978C87.8852 36.7486 88.6893 40.7699 88.6926 44.8318C88.6871 50.9087 86.8903 56.8491 83.5268 61.9103C80.1591 66.9769 75.376 70.9415 69.7726 73.3108M73.9276 71.6831V94.07M40.8638 86.8467V94.07" stroke="#FF7E5B" stroke-width="4.008" stroke-miterlimit="10" stroke-linecap="round" stroke-linejoin="round"/>
<path d="M73.5022 43.5314C73.7335 43.4287 73.942 43.281 74.1157 43.097C74.2893 42.9129 74.4247 42.6962 74.5138 42.4593C74.6029 42.2225 74.644 41.9703 74.6347 41.7174C74.6254 41.4645 74.5659 41.216 74.4597 40.9863L71.683 34.9721C71.436 34.4366 70.9866 34.021 70.4335 33.8165C69.8804 33.6119 69.2687 33.6351 68.7327 33.8811L66.2277 35.0322C65.5491 35.3411 64.779 35.3827 64.0711 35.1487C63.3632 34.9146 62.7697 34.4222 62.409 33.7697C62.1717 33.3377 62.0469 32.8531 62.046 32.3602V29.6125C62.046 29.022 61.8114 28.4556 61.3938 28.038C60.9762 27.6205 60.4099 27.3859 59.8193 27.3859H53.4667C52.8761 27.3859 52.3097 27.6205 51.8922 28.038C51.4746 28.4556 51.24 29.022 51.24 29.6125V30.9285C51.2399 31.4452 51.1035 31.9527 50.8448 32.3999C50.586 32.8471 50.2139 33.2182 49.7659 33.4758C49.3179 33.7343 48.81 33.8709 48.2928 33.8721C47.7755 33.8732 47.267 33.7389 46.8178 33.4825L45.6577 32.8412C45.1475 32.5586 44.5467 32.4876 43.9846 32.6433C43.4224 32.799 42.9439 33.1691 42.6517 33.674L39.2761 39.5101C39.1543 39.7201 39.0752 39.9522 39.0434 40.1929C39.0115 40.4336 39.0277 40.6783 39.0908 40.9128C39.1539 41.1472 39.2628 41.3669 39.4111 41.5592C39.5595 41.7514 39.7444 41.9124 39.9552 42.0329C40.4232 42.3026 40.8082 42.6957 41.0681 43.1693C41.328 43.6428 41.453 44.1786 41.4293 44.7182C41.4044 45.2583 41.2312 45.7811 40.9288 46.2293C40.6263 46.6775 40.2063 47.0337 39.7148 47.2589C39.4905 47.3618 39.2887 47.5079 39.121 47.6889C38.9533 47.8699 38.8229 48.0821 38.7372 48.3135C38.6516 48.545 38.6125 48.791 38.622 49.0376C38.6316 49.2841 38.6897 49.5264 38.7929 49.7505L41.5852 55.8137C41.8322 56.3498 42.282 56.7658 42.8356 56.9704C43.3893 57.175 44.0015 57.1514 44.5377 56.9048L47.0405 55.7581C47.7191 55.4492 48.4892 55.4076 49.1971 55.6416C49.9049 55.8756 50.4985 56.3681 50.8592 57.0206C51.0953 57.4525 51.22 57.938 51.2222 58.43V61.1778C51.2222 61.7683 51.4568 62.3347 51.8744 62.7522C52.2919 63.1698 52.8583 63.4044 53.4488 63.4044H59.7503C60.3409 63.4044 60.9072 63.1698 61.3248 62.7522C61.7424 62.3347 61.977 61.7683 61.977 61.1778V59.8618C61.9771 59.3451 62.1134 58.8376 62.3722 58.3904C62.631 57.9431 63.0031 57.5721 63.451 57.3145C63.8991 57.056 64.407 56.9194 64.9242 56.9182C65.4414 56.9171 65.9499 57.0514 66.3991 57.3078L67.5615 57.9535C68.0717 58.2361 68.6725 58.3072 69.2346 58.1515C69.7968 57.9957 70.2753 57.6256 70.5675 57.1208L73.9431 51.298C74.0662 51.0855 74.1463 50.8507 74.1787 50.6072C74.2111 50.3637 74.1952 50.1162 74.1319 49.8788C74.0686 49.6414 73.9592 49.4188 73.8099 49.2238C73.6606 49.0287 73.4743 48.8649 73.2617 48.7418C72.9148 48.539 72.6129 48.2673 72.3748 47.9436C72.1367 47.6198 71.9672 47.2508 71.8769 46.8591C71.7866 46.4675 71.7774 46.0615 71.8497 45.6662C71.9221 45.2708 72.0745 44.8944 72.2976 44.5601C72.596 44.1148 73.0123 43.7585 73.5 43.5292L73.5022 43.5314Z" stroke="#CC5231" stroke-width="4.008" stroke-miterlimit="10" stroke-linejoin="round"/>
<path d="M56.7354 51.0197C60.3644 51.0197 63.3063 48.0848 63.3063 44.4644C63.3063 40.844 60.3644 37.9091 56.7354 37.9091C53.1064 37.9091 50.1646 40.844 50.1646 44.4644C50.1646 48.0848 53.1064 51.0197 56.7354 51.0197Z" stroke="#CC5231" stroke-width="4.008" stroke-miterlimit="10" stroke-linecap="round" stroke-linejoin="round"/>
<path d="M15.5867 42.2221C15.8093 38.8131 17.4237 30.6657 22.1108 25.3529M91.2933 65.3104C90.278 68.4166 87.0115 73.7718 82.5826 76.8245" stroke="#FF7E5B" stroke-width="4.008" stroke-linecap="round"/>
</g>
</g>
</g>
<defs>
<clipPath id="clip0_2_491">
<rect width="106.88" height="106.88" fill="white" transform="translate(0 0.550049)"/>
</clipPath>
<clipPath id="clip1_2_491">
<rect width="106.88" height="106.88" fill="white" transform="translate(0 0.550049)"/>
</clipPath>
<clipPath id="clip2_2_491">
<rect width="106.88" height="106.88" fill="white" transform="translate(0 0.550049)"/>
</clipPath>
</defs>
</svg>
