<svg width="40" height="40" viewBox="0 0 40 40" fill="none" xmlns="http://www.w3.org/2000/svg">
<g clip-path="url(#clip0_88_1452)">
<path d="M39.0625 37.6562V9.375H31.25V37.6562H28.9844V14.0625H21.1719V37.6562H18.8281V18.75H11.0156V37.6562H8.75V23.4375H0.9375V37.6562H0V40H40V37.6562H39.0625ZM33.5938 11.7188H36.7188V37.6562H33.5938V11.7188ZM23.5156 16.4062H26.6406V37.6562H23.5156V16.4062ZM13.3594 21.0938H16.4844V37.6562H13.3594V21.0938ZM3.28125 25.7812H6.40625V37.6562H3.28125V25.7812ZM4.84375 21.0938C6.78223 21.0938 8.35938 19.5166 8.35938 17.5781C8.35938 17.4661 8.35358 17.3557 8.3432 17.2464L12.4185 15.3558C13.0566 16.0037 13.9429 16.4062 14.9219 16.4062C16.8604 16.4062 18.4375 14.8291 18.4375 12.8906C18.4375 12.7826 18.432 12.6761 18.4222 12.5705L22.5589 10.6516C23.1979 11.3092 24.0909 11.7188 25.0781 11.7188C27.0166 11.7188 28.5938 10.1416 28.5938 8.20312C28.5938 8.08716 28.5876 7.97272 28.5767 7.8598L32.645 5.9726C33.2834 6.62506 34.1733 7.03125 35.1562 7.03125C37.0947 7.03125 38.6719 5.4541 38.6719 3.51562C38.6719 1.57715 37.0947 0 35.1562 0C33.2178 0 31.6406 1.57715 31.6406 3.51562C31.6406 3.62762 31.6464 3.7381 31.6568 3.84735L27.5815 5.73792C26.9434 5.09003 26.0571 4.6875 25.0781 4.6875C23.1396 4.6875 21.5625 6.26465 21.5625 8.20312C21.5625 8.31116 21.568 8.41766 21.5778 8.52325L17.4411 10.4422C16.8021 9.78455 15.9091 9.375 14.9219 9.375C12.9834 9.375 11.4062 10.9521 11.4062 12.8906C11.4062 13.0066 11.4124 13.121 11.4233 13.2339L7.35504 15.1212C6.71661 14.4687 5.82672 14.0625 4.84375 14.0625C2.90527 14.0625 1.32812 15.6396 1.32812 17.5781C1.32812 19.5166 2.90527 21.0938 4.84375 21.0938ZM35.1562 2.34375C35.8023 2.34375 36.3281 2.86957 36.3281 3.51562C36.3281 4.16168 35.8023 4.6875 35.1562 4.6875C34.5102 4.6875 33.9844 4.16168 33.9844 3.51562C33.9844 2.86957 34.5102 2.34375 35.1562 2.34375ZM25.0781 7.03125C25.7242 7.03125 26.25 7.55707 26.25 8.20312C26.25 8.84918 25.7242 9.375 25.0781 9.375C24.4321 9.375 23.9062 8.84918 23.9062 8.20312C23.9062 7.55707 24.4321 7.03125 25.0781 7.03125ZM14.9219 11.7188C15.5679 11.7188 16.0938 12.2446 16.0938 12.8906C16.0938 13.5367 15.5679 14.0625 14.9219 14.0625C14.2758 14.0625 13.75 13.5367 13.75 12.8906C13.75 12.2446 14.2758 11.7188 14.9219 11.7188ZM4.84375 16.4062C5.48981 16.4062 6.01562 16.9321 6.01562 17.5781C6.01562 18.2242 5.48981 18.75 4.84375 18.75C4.19769 18.75 3.67188 18.2242 3.67188 17.5781C3.67188 16.9321 4.19769 16.4062 4.84375 16.4062Z" fill="url(#paint0_linear_88_1452)"/>
</g>
<defs>
<linearGradient id="paint0_linear_88_1452" x1="5.44061" y1="-13.3333" x2="47.3843" y2="-11.2011" gradientUnits="userSpaceOnUse">
<stop stop-color="#298CFD"/>
<stop offset="0.500128" stop-color="#7E3BFF"/>
<stop offset="0.976096" stop-color="#CE17F8"/>
</linearGradient>
<clipPath id="clip0_88_1452">
<rect width="40" height="40" fill="white"/>
</clipPath>
</defs>
</svg>
