<svg width="48" height="48" viewBox="0 0 48 48" fill="none" xmlns="http://www.w3.org/2000/svg">
<path d="M4.5 16.5H43.5V36M33 37.5C36.6 37.5 39.75 39.3 41.55 42C42.75 40.35 43.5 38.25 43.5 36M33 37.5C29.4 37.5 26.25 39.3 24.45 42C23.25 40.35 22.5 38.25 22.5 36C22.5 30.15 27.15 25.5 33 25.5C38.85 25.5 43.5 30.15 43.5 36M33 37.5L37.5 31.5M43.5 18V7.5H4.5V40.5H22.5M10.5 22.5H18M10.5 27H13.5M12 12C12 12.8284 11.3284 13.5 10.5 13.5C9.67157 13.5 9 12.8284 9 12C9 11.1716 9.67157 10.5 10.5 10.5C11.3284 10.5 12 11.1716 12 12ZM16.5 12C16.5 12.8284 15.8284 13.5 15 13.5C14.1716 13.5 13.5 12.8284 13.5 12C13.5 11.1716 14.1716 10.5 15 10.5C15.8284 10.5 16.5 11.1716 16.5 12ZM21 12C21 12.8284 20.3284 13.5 19.5 13.5C18.6716 13.5 18 12.8284 18 12C18 11.1716 18.6716 10.5 19.5 10.5C20.3284 10.5 21 11.1716 21 12Z" stroke="url(#paint0_linear_88_1510)" stroke-width="2" stroke-miterlimit="10" stroke-linecap="round" stroke-linejoin="round"/>
<defs>
<linearGradient id="paint0_linear_88_1510" x1="9.8046" y1="-4" x2="50.6705" y2="-1.65161" gradientUnits="userSpaceOnUse">
<stop stop-color="#298CFD"/>
<stop offset="0.500128" stop-color="#7E3BFF"/>
<stop offset="0.976096" stop-color="#CE17F8"/>
</linearGradient>
</defs>
</svg>
