<svg width="48" height="48" viewBox="0 0 48 48" fill="none" xmlns="http://www.w3.org/2000/svg">
<path d="M37.9998 18C36.7619 18.0035 35.5554 18.3898 34.5456 19.1059C33.5359 19.822 32.7724 20.8329 32.3598 22H21.9998V12H24.3598C24.8316 13.3344 25.7599 14.4591 26.9807 15.1753C28.2015 15.8914 29.6362 16.1529 31.0312 15.9136C32.4262 15.6743 33.6917 14.9495 34.604 13.8673C35.5163 12.7852 36.0166 11.4154 36.0166 10C36.0166 8.58464 35.5163 7.21483 34.604 6.13269C33.6917 5.05055 32.4262 4.32576 31.0312 4.08642C29.6362 3.84708 28.2015 4.1086 26.9807 4.82475C25.7599 5.5409 24.8316 6.66558 24.3598 8.00001H19.9998C19.4693 8.00001 18.9606 8.21073 18.5856 8.5858C18.2105 8.96087 17.9998 9.46958 17.9998 10V22H15.6398C15.168 20.6656 14.2396 19.5409 13.0188 18.8247C11.798 18.1086 10.3633 17.8471 8.9683 18.0864C7.57331 18.3258 6.30784 19.0506 5.39555 20.1327C4.48327 21.2148 3.98291 22.5846 3.98291 24C3.98291 25.4154 4.48327 26.7852 5.39555 27.8673C6.30784 28.9495 7.57331 29.6743 8.9683 29.9136C10.3633 30.1529 11.798 29.8914 13.0188 29.1753C14.2396 28.4591 15.168 27.3344 15.6398 26H17.9998V38C17.9998 38.5304 18.2105 39.0392 18.5856 39.4142C18.9606 39.7893 19.4693 40 19.9998 40H24.3598C24.8316 41.3344 25.7599 42.4591 26.9807 43.1753C28.2015 43.8914 29.6362 44.1529 31.0312 43.9136C32.4262 43.6743 33.6917 42.9495 34.604 41.8673C35.5163 40.7852 36.0166 39.4154 36.0166 38C36.0166 36.5846 35.5163 35.2148 34.604 34.1327C33.6917 33.0506 32.4262 32.3258 31.0312 32.0864C29.6362 31.8471 28.2015 32.1086 26.9807 32.8248C25.7599 33.5409 24.8316 34.6656 24.3598 36H21.9998V26H32.3598C32.7267 27.0378 33.372 27.9546 34.2251 28.6502C35.0781 29.3457 36.1061 29.7932 37.1965 29.9437C38.2869 30.0941 39.3976 29.9417 40.4072 29.5032C41.4167 29.0646 42.2862 28.3568 42.9205 27.4572C43.5547 26.5576 43.9292 25.5008 44.0031 24.4026C44.0769 23.3044 43.8473 22.207 43.3392 21.2306C42.8312 20.2541 42.0643 19.4363 41.1226 18.8665C40.1808 18.2967 39.1005 17.9969 37.9998 18ZM29.9998 8.00001C30.3953 8.00001 30.782 8.11731 31.1109 8.33707C31.4398 8.55684 31.6961 8.86919 31.8475 9.23465C31.9989 9.6001 32.0385 10.0022 31.9613 10.3902C31.8842 10.7782 31.6937 11.1345 31.414 11.4142C31.1343 11.6939 30.7779 11.8844 30.3899 11.9616C30.002 12.0388 29.5998 11.9991 29.2344 11.8478C28.8689 11.6964 28.5566 11.4401 28.3368 11.1112C28.1171 10.7823 27.9998 10.3956 27.9998 10C27.9998 9.46958 28.2105 8.96087 28.5856 8.5858C28.9606 8.21073 29.4693 8.00001 29.9998 8.00001ZM9.99976 26C9.6042 26 9.21752 25.8827 8.88862 25.663C8.55973 25.4432 8.30338 25.1308 8.15201 24.7654C8.00063 24.3999 7.96102 23.9978 8.03819 23.6098C8.11536 23.2219 8.30585 22.8655 8.58555 22.5858C8.86526 22.3061 9.22162 22.1156 9.60958 22.0384C9.99755 21.9613 10.3997 22.0009 10.7651 22.1523C11.1306 22.3036 11.4429 22.56 11.6627 22.8889C11.8825 23.2178 11.9998 23.6045 11.9998 24C11.9998 24.5304 11.7891 25.0392 11.414 25.4142C11.0389 25.7893 10.5302 26 9.99976 26ZM29.9998 36C30.3953 36 30.782 36.1173 31.1109 36.3371C31.4398 36.5568 31.6961 36.8692 31.8475 37.2346C31.9989 37.6001 32.0385 38.0022 31.9613 38.3902C31.8842 38.7782 31.6937 39.1345 31.414 39.4142C31.1343 39.6939 30.7779 39.8844 30.3899 39.9616C30.002 40.0388 29.5998 39.9991 29.2344 39.8478C28.8689 39.6964 28.5566 39.4401 28.3368 39.1112C28.1171 38.7823 27.9998 38.3956 27.9998 38C27.9998 37.4696 28.2105 36.9609 28.5856 36.5858C28.9606 36.2107 29.4693 36 29.9998 36ZM37.9998 26C37.6042 26 37.2175 25.8827 36.8886 25.663C36.5597 25.4432 36.3034 25.1308 36.152 24.7654C36.0006 24.3999 35.961 23.9978 36.0382 23.6098C36.1154 23.2219 36.3058 22.8655 36.5855 22.5858C36.8653 22.3061 37.2216 22.1156 37.6096 22.0384C37.9975 21.9613 38.3997 22.0009 38.7651 22.1523C39.1306 22.3036 39.4429 22.56 39.6627 22.8889C39.8825 23.2178 39.9998 23.6045 39.9998 24C39.9998 24.5304 39.7891 25.0392 39.414 25.4142C39.0389 25.7893 38.5302 26 37.9998 26Z" fill="url(#paint0_linear_88_1457)"/>
<defs>
<linearGradient id="paint0_linear_88_1457" x1="9.42811" y1="-9.33335" x2="51.407" y2="-7.19755" gradientUnits="userSpaceOnUse">
<stop stop-color="#298CFD"/>
<stop offset="0.500128" stop-color="#7E3BFF"/>
<stop offset="0.976096" stop-color="#CE17F8"/>
</linearGradient>
</defs>
</svg>
