<svg width="48" height="48" viewBox="0 0 48 48" fill="none" xmlns="http://www.w3.org/2000/svg">
<path d="M12.3604 6.43469C16.0541 6.43488 18.6922 8.76062 19.668 11.0939L19.71 11.2081C19.8744 11.7482 19.6336 12.3316 19.1387 12.6007L19.0283 12.6534C18.4596 12.8909 17.8098 12.6552 17.5215 12.1241L17.4688 12.0138C16.9163 10.6935 15.5326 9.33894 13.5518 8.93958V14.1115C13.5517 14.452 13.4062 14.7737 13.1562 14.9982L13.043 15.088C11.2414 16.3463 9.85049 17.7957 8.89648 19.3888L8.89551 19.3878C8.65812 19.7849 8.2156 20.0039 7.76367 19.963C7.77231 19.9638 7.77702 19.964 7.77344 19.964C7.77122 19.964 7.76793 19.9638 7.76172 19.964C7.75654 19.9641 7.74735 19.9648 7.73828 19.965H4.59473C3.95839 19.965 3.32523 20.5866 3.3252 21.5001V24.1144C3.3252 25.3004 3.96473 26.7052 5.38281 28.3312C6.79374 29.9489 8.92634 31.7291 11.79 33.6583L11.8838 33.7286C12.0629 33.8769 12.1943 34.0746 12.2627 34.297L12.292 34.4093V34.4103L13.5557 40.6407H15.2832L15.9766 37.7198L16.0137 37.5958C16.1001 37.3531 16.2629 37.1438 16.4785 37.0011L16.5908 36.9357C16.9001 36.7758 17.2644 36.7596 17.5869 36.8917H17.5859C20.1715 37.9421 22.1932 38.1447 25.0879 38.1447C28.1289 38.1447 29.7843 37.8799 31.9814 37.0636H31.9824L32.1016 37.0265C32.3838 36.9547 32.6862 36.9883 32.9482 37.1251C33.2101 37.2619 33.4091 37.4898 33.5117 37.7618L33.5498 37.881L33.5508 37.882L34.2666 40.6407H36.0322L37.3105 34.8849V34.8829L37.3389 34.7794C37.4157 34.5417 37.566 34.3325 37.7695 34.1827L37.7705 34.1818L38.0986 33.9366C39.7084 32.7066 40.8656 31.4156 41.6338 29.9962C42.4516 28.485 42.8438 26.7988 42.8438 24.8322C42.8437 20.7696 40.313 16.8496 35.9375 14.3068L35.5078 14.0646C34.9309 13.749 34.7169 13.0248 35.0332 12.4464C35.33 11.904 35.9845 11.6867 36.54 11.9191L36.6494 11.9708L36.6514 11.9718L37.1445 12.2501C42.1803 15.1807 45.2284 19.8344 45.2285 24.8322C45.2285 29.3633 43.3956 32.8825 39.543 35.8302L38.1533 42.0909V42.0919C38.0318 42.6363 37.5482 43.0245 36.9893 43.0245H33.3438C32.8348 43.0244 32.3861 42.7023 32.2197 42.2286L32.1904 42.132L31.5635 39.7208C29.3616 40.3927 27.5375 40.5284 25.0879 40.5284C22.4263 40.5284 20.3638 40.3664 17.9854 39.5782L17.3848 42.1085C17.2568 42.6457 16.7768 43.0245 16.2246 43.0245H12.5801C12.0481 43.0245 11.585 42.6738 11.4365 42.172L11.4111 42.0695L10.0508 35.3595C8.76539 34.4872 6.57939 32.9548 4.67871 31.0665C2.71336 29.114 0.94043 26.6739 0.94043 24.1144V21.5001C0.940464 19.3775 2.542 17.5812 4.59473 17.5812H7.2207C8.22759 16.0729 9.55348 14.7058 11.168 13.5021V7.62708C11.1681 6.96849 11.7017 6.43469 12.3604 6.43469ZM15.1787 16.9464C16.7754 16.9466 18.0742 18.2452 18.0742 19.8419C18.0741 21.4385 16.7758 22.7373 15.1787 22.7374C13.5814 22.7374 12.2833 21.4386 12.2832 19.8419C12.2832 18.2451 13.5819 16.9464 15.1787 16.9464ZM15.1787 19.3312C14.8975 19.3312 14.667 19.5606 14.667 19.8419C14.6671 20.1231 14.8975 20.3527 15.1787 20.3527C15.4597 20.3525 15.6893 20.123 15.6895 19.8419C15.6895 19.5607 15.4598 19.3313 15.1787 19.3312ZM27.2832 3.36633C31.079 3.36633 34.1667 6.4538 34.167 10.2501L34.1611 10.5372C34.1038 11.9637 33.6154 13.3121 32.7402 14.4484V14.4493C32.5257 14.7274 32.1991 14.896 31.8477 14.9113L31.8486 14.9122C31.8247 14.9134 31.8027 14.9132 31.7949 14.9132C31.4607 14.9131 31.1387 14.7721 30.9121 14.5216V14.5206C30.0438 13.5665 28.7254 13.004 27.2832 13.004C25.8203 13.004 24.4555 13.5733 23.624 14.4845L23.625 14.4855C23.3892 14.7457 23.0488 14.8941 22.6836 14.8741V14.8732C22.3756 14.8578 22.0875 14.7249 21.8779 14.504L21.793 14.4034C20.8818 13.2005 20.3994 11.7619 20.3994 10.2501C20.3997 6.4538 23.4875 3.36634 27.2832 3.36633ZM27.2832 5.75012C24.8024 5.75013 22.7838 7.76964 22.7842 10.2501L22.793 10.5314C22.8206 10.9861 22.9161 11.4265 23.0742 11.8439C24.2691 11.0504 25.7396 10.6193 27.2842 10.6193C28.8151 10.6194 30.2803 11.0647 31.4795 11.88C31.6788 11.3676 31.7835 10.8192 31.7832 10.2511V10.2501L31.7773 10.0197C31.6567 7.64544 29.6861 5.75012 27.2832 5.75012Z" fill="url(#paint0_linear_88_1469)" stroke="url(#paint1_linear_88_1469)"/>
<defs>
<linearGradient id="paint0_linear_88_1469" x1="7.32829" y1="-9.01984" x2="52.6903" y2="-6.43769" gradientUnits="userSpaceOnUse">
<stop stop-color="#298CFD"/>
<stop offset="0.500128" stop-color="#7E3BFF"/>
<stop offset="0.976096" stop-color="#CE17F8"/>
</linearGradient>
<linearGradient id="paint1_linear_88_1469" x1="7.32829" y1="-9.01984" x2="52.6903" y2="-6.43769" gradientUnits="userSpaceOnUse">
<stop stop-color="#298CFD"/>
<stop offset="0.500128" stop-color="#7E3BFF"/>
<stop offset="0.976096" stop-color="#CE17F8"/>
</linearGradient>
</defs>
</svg>
