<svg width="48" height="48" viewBox="0 0 48 48" fill="none" xmlns="http://www.w3.org/2000/svg">
<path d="M32.25 24L24.3375 30.0188C24.225 30.0094 24.1125 30 24 30C22.3406 30 21 31.3406 21 33C21 34.6594 22.3406 36 24 36C25.6594 36 27 34.6594 27 33C27 32.8875 26.9906 32.775 26.9812 32.6625L33 24.75L32.25 24Z" fill="url(#paint0_linear_88_1421)"/>
<path d="M24 9C12.4031 9 3 18.4031 3 30C3 33.225 3.73125 36.2719 5.025 39H8.40937C6.96562 36.5063 6.14062 33.6938 6.01875 30.75H9V29.25H6.01875C6.13125 26.55 6.83437 23.9531 8.0625 21.6188L10.6406 23.1094L11.3906 21.8063L8.8125 20.325C9.50625 19.2375 10.3312 18.2062 11.2687 17.2687C12.225 16.3219 13.2656 15.4875 14.3719 14.7844L15.8531 17.3438L17.1562 16.5938L15.675 14.0344C18 12.8156 20.5688 12.1312 23.25 12.0187V15H24.75V12.0187C27.4312 12.1312 30 12.825 32.325 14.0344L30.8531 16.5938L32.1562 17.3438L33.6375 14.7844C34.7437 15.4875 35.7844 16.3219 36.7406 17.2687C37.6781 18.2062 38.4938 19.2281 39.1969 20.325L36.6281 21.8063L37.3781 23.1094L39.9563 21.6188C41.1844 23.9531 41.8875 26.55 42 29.25H39V30.75H41.9812C41.8594 33.6938 41.0344 36.5063 39.5906 39H42.975C44.2687 36.2719 45 33.225 45 30C45 18.4031 35.5969 9 24 9Z" fill="url(#paint1_linear_88_1421)"/>
<defs>
<linearGradient id="paint0_linear_88_1421" x1="22.6322" y1="20" x2="35.2153" y2="20.6397" gradientUnits="userSpaceOnUse">
<stop stop-color="#298CFD"/>
<stop offset="0.500128" stop-color="#7E3BFF"/>
<stop offset="0.976096" stop-color="#CE17F8"/>
</linearGradient>
<linearGradient id="paint1_linear_88_1421" x1="8.71264" y1="-1" x2="52.6448" y2="2.12662" gradientUnits="userSpaceOnUse">
<stop stop-color="#298CFD"/>
<stop offset="0.500128" stop-color="#7E3BFF"/>
<stop offset="0.976096" stop-color="#CE17F8"/>
</linearGradient>
</defs>
</svg>
